<svg xmlns:dc="http://purl.org/dc/elements/1.1/" xmlns:cc="http://creativecommons.org/ns#" xmlns:rdf="http://www.w3.org/1999/02/22-rdf-syntax-ns#" xmlns:svg="http://www.w3.org/2000/svg" xmlns="http://www.w3.org/2000/svg" version="1.1" id="Layer_1" x="0" y="0" width="126" height="42" viewBox="0 0 144 47.969" enable-background="new 0 0 144 47.969" xml:space="preserve"><metadata id="metadata48"><rdf:RDF><cc:Work><dc:format>image/svg+xml</dc:format><dc:type rdf:resource="http://purl.org/dc/dcmitype/StillImage"/><dc:title/></cc:Work></rdf:RDF></metadata><g id="g3"><circle display="none" opacity=".2" cx="115.689" cy="18.281" r="13.191" id="circle5"/><circle fill="none" stroke="#000" stroke-miterlimit="10" cx="115.689" cy="18.281" r="13.191" id="circle7"/><path d="M138.069,40.772c-0.739,0.739-1.87,0.806-2.527,0.149l-11.096-11.096c-0.657-0.657-0.59-1.788,0.149-2.527l0,0 c0.739-0.739,1.87-0.806,2.527-0.149l11.096,11.096C138.875,38.902,138.808,40.033,138.069,40.772L138.069,40.772z" id="path9"/></g><line fill="none" stroke="#000" stroke-width=".5" stroke-miterlimit="10" x1="80.837" y1="12.018" x2="80.837" y2="34.242" id="line11"/><line fill="none" stroke="#000" stroke-width=".5" stroke-miterlimit="10" x1="77.722" y1="34.242" x2="83.952" y2="34.242" id="line13"/><line fill="none" stroke="#000" stroke-width=".5" stroke-miterlimit="10" x1="77.722" y1="12.018" x2="83.952" y2="12.018" id="line15"/><text transform="matrix(1 0 0 1 58.1376 31.948)" font-family="'MyriadPro-Regular'" font-size="23.576" id="text17">ID</text><path id="eingabefeld_2_" fill="none" stroke="#000" stroke-miterlimit="10" d="M91.984,32.845c0,5.329-4.616,9.65-10.311,9.65 H62.326c-5.694,0-10.311-4.32-10.311-9.65V14.144c0-5.329,4.616-9.65,10.311-9.65h19.347c5.694,0,10.311,4.32,10.311,9.65V32.845z"/><circle fill="none" stroke="#000" stroke-miterlimit="10" cx="23.624" cy="23.754" r="19.418" id="circle20"/><path fill="none" stroke="#000" stroke-width=".5" stroke-miterlimit="10" d="M23.624,23.754V4.336v38.836" id="path22"/><line fill="none" stroke="#000" stroke-width=".5" stroke-miterlimit="10" x1="12.003" y1="8.198" x2="35.246" y2="39.31" id="line24"/><line fill="none" stroke="#000" stroke-width=".5" stroke-miterlimit="10" x1="4.92" y1="18.538" x2="42.328" y2="28.97" id="line26"/><line fill="none" stroke="#000" stroke-width=".5" stroke-miterlimit="10" x1="5.274" y1="30.105" x2="41.974" y2="17.403" id="line28"/><line fill="none" stroke="#000" stroke-width=".5" stroke-miterlimit="10" x1="12.291" y1="39.522" x2="34.957" y2="7.986" id="line30"/><path d="M44.565,12.37l-12.039,5.033l7.066-10.659C39.592,6.744,46.064,5.547,44.565,12.37z" id="path32"/><path opacity=".1" d="M23.624,23.754V4.336c0,0,10.596,1.405,11.181,3.862L23.624,23.754z" id="path34"/><path opacity=".1" d="M23.313,23.966l18.426-6.126c1.525,0.565,0.589,11.13,0.589,11.13L23.313,23.966z" id="path36"/><polygon opacity=".1" points="23.872,24.015 35.246,39.753 23.922,43.172" id="polygon38"/><path opacity=".1" d="M24,23.66L12.654,39.419c-4.139-1.389-7.38-9.314-7.38-9.314L24,23.66z" id="path40"/><path opacity=".1" d="M23.518,24.015L4.932,18.39c-0.73-2.11,7.07-10.192,7.07-10.192L23.518,24.015z" id="path42"/></svg>